<?xml version="1.0" standalone="no"?>
<!DOCTYPE svg PUBLIC "-//W3C//DTD SVG 1.1//EN" "http://www.w3.org/Graphics/SVG/1.1/DTD/svg11.dtd">
<svg xmlns="http://www.w3.org/2000/svg" xmlns:xlink="http://www.w3.org/1999/xlink" width="1440" zoomAndPan="magnify" viewBox="0 0 1440 187.499995" height="187.5" preserveAspectRatio="xMidYMid meet" version="1.0"><defs><g/></defs><g fill="#000000" fill-opacity="1"><g transform="translate(1.914914, 143.255432)"><g><path d="M 99.625 -132.761719 C 95.710938 -132.761719 93.035156 -129.675781 93.035156 -125.765625 L 93.035156 -78.011719 C 85.007812 -89.539062 72.246094 -96.949219 57.222656 -96.949219 C 30.050781 -96.949219 8.234375 -75.128906 8.234375 -47.960938 C 8.234375 -20.996094 30.050781 1.441406 55.988281 1.441406 C 73.6875 1.441406 87.890625 -7.617188 95.710938 -22.230469 L 95.710938 -6.792969 C 95.710938 -1.851562 98.386719 0 101.0625 0 C 103.738281 0 106.210938 -2.675781 106.210938 -6.175781 L 106.210938 -125.765625 C 106.210938 -129.675781 103.328125 -132.761719 99.625 -132.761719 Z M 57.222656 -11.527344 C 36.84375 -11.527344 20.996094 -28.199219 20.996094 -47.960938 C 20.996094 -68.128906 36.84375 -84.390625 57.222656 -84.390625 C 77.394531 -84.390625 93.652344 -68.128906 93.652344 -47.960938 C 93.652344 -28.199219 77.394531 -11.527344 57.222656 -11.527344 Z M 57.222656 -11.527344 "/></g></g></g><g fill="#000000" fill-opacity="1"><g transform="translate(122.933889, 143.255432)"><g><path d="M 20.789062 -108.679688 C 25.316406 -108.679688 29.023438 -112.382812 29.023438 -116.707031 C 29.023438 -121.234375 25.316406 -124.941406 20.789062 -124.941406 C 16.464844 -124.941406 12.761719 -121.234375 12.761719 -116.707031 C 12.761719 -112.382812 16.464844 -108.679688 20.789062 -108.679688 Z M 20.789062 0 C 24.492188 0 27.375 -3.085938 27.375 -6.792969 L 27.375 -89.125 C 27.375 -92.832031 24.699219 -95.917969 20.996094 -95.917969 C 17.085938 -95.917969 13.996094 -92.832031 13.996094 -89.125 L 13.996094 -6.792969 C 13.996094 -3.085938 17.085938 0 20.789062 0 Z M 20.789062 0 "/></g></g></g><g fill="#000000" fill-opacity="1"><g transform="translate(164.302603, 143.255432)"><g><path d="M 100.652344 -95.917969 C 97.976562 -95.917969 95.300781 -94.066406 95.300781 -88.917969 L 95.300781 -72.660156 C 87.683594 -87.683594 73.894531 -96.742188 55.574219 -96.742188 C 30.050781 -96.742188 8.234375 -75.953125 8.234375 -48.371094 C 8.234375 -20.996094 30.050781 0.410156 55.574219 0.410156 C 73.894531 0.410156 87.683594 -9.058594 95.300781 -24.082031 L 95.300781 -6.585938 C 95.300781 13.789062 83.773438 25.933594 68.953125 25.933594 L 35.402344 25.933594 C 26.964844 26.140625 27.582031 38.285156 35.402344 38.078125 L 71.011719 38.078125 C 87.683594 38.078125 105.796875 25.113281 105.796875 -5.761719 L 105.796875 -89.539062 C 105.796875 -93.035156 103.328125 -95.917969 100.652344 -95.917969 Z M 56.808594 -12.144531 C 36.636719 -12.144531 20.582031 -28.609375 20.582031 -48.371094 C 20.582031 -68.335938 36.636719 -84.597656 56.808594 -84.597656 C 77.1875 -84.597656 93.035156 -68.542969 93.035156 -48.371094 C 93.035156 -28.199219 77.1875 -12.144531 56.808594 -12.144531 Z M 56.808594 -12.144531 "/></g></g></g><g fill="#000000" fill-opacity="1"><g transform="translate(284.29251, 143.255432)"><g><path d="M 20.789062 -108.679688 C 25.316406 -108.679688 29.023438 -112.382812 29.023438 -116.707031 C 29.023438 -121.234375 25.316406 -124.941406 20.789062 -124.941406 C 16.464844 -124.941406 12.761719 -121.234375 12.761719 -116.707031 C 12.761719 -112.382812 16.464844 -108.679688 20.789062 -108.679688 Z M 20.789062 0 C 24.492188 0 27.375 -3.085938 27.375 -6.792969 L 27.375 -89.125 C 27.375 -92.832031 24.699219 -95.917969 20.996094 -95.917969 C 17.085938 -95.917969 13.996094 -92.832031 13.996094 -89.125 L 13.996094 -6.792969 C 13.996094 -3.085938 17.085938 0 20.789062 0 Z M 20.789062 0 "/></g></g></g><g fill="#000000" fill-opacity="1"><g transform="translate(325.661224, 143.255432)"><g><path d="M 37.253906 -95.917969 L 37.253906 -116.707031 C 37.253906 -120.414062 33.960938 -123.292969 30.257812 -123.292969 C 26.757812 -123.292969 23.875 -120.414062 23.875 -116.707031 L 23.875 -95.917969 L 9.058594 -95.917969 C 3.910156 -95.917969 2.058594 -92.625 2.058594 -89.742188 C 2.058594 -86.039062 4.117188 -83.15625 9.058594 -83.15625 L 23.875 -83.15625 L 23.875 -7 C 23.875 -2.46875 27.171875 0 30.464844 0 C 33.960938 0 37.253906 -2.46875 37.253906 -7 L 37.253906 -83.15625 L 52.074219 -83.15625 C 56.398438 -83.15625 58.867188 -86.039062 58.867188 -89.949219 C 58.867188 -93.035156 56.398438 -95.917969 52.074219 -95.917969 Z M 37.253906 -95.917969 "/></g></g></g><g fill="#000000" fill-opacity="1"><g transform="translate(386.582359, 143.255432)"><g><path d="M 101.0625 -95.917969 C 98.59375 -95.917969 95.710938 -94.066406 95.710938 -88.917969 L 95.710938 -73.070312 C 87.890625 -87.890625 74.101562 -96.949219 55.988281 -96.949219 C 30.464844 -96.949219 8.234375 -75.746094 8.234375 -47.753906 C 8.234375 -20.171875 30.464844 1.441406 55.988281 1.441406 C 74.101562 1.441406 88.097656 -7.820312 95.710938 -22.640625 L 95.710938 -6.175781 C 95.710938 -2.675781 97.152344 0 101.0625 0 C 104.5625 0 106.414062 -2.675781 106.414062 -6.175781 L 106.414062 -89.539062 C 106.414062 -93.035156 103.945312 -95.917969 101.0625 -95.917969 Z M 57.425781 -11.527344 C 37.050781 -11.527344 20.996094 -27.992188 20.996094 -47.753906 C 20.996094 -67.925781 37.050781 -84.390625 57.425781 -84.390625 C 77.804688 -84.390625 93.652344 -68.128906 93.652344 -47.753906 C 93.652344 -27.582031 77.804688 -11.527344 57.425781 -11.527344 Z M 57.425781 -11.527344 "/></g></g></g><g fill="#000000" fill-opacity="1"><g transform="translate(505.337373, 143.255432)"><g><path d="M 14.613281 -7 C 14.613281 -2.46875 18.113281 0 21.40625 0 C 24.699219 0 27.992188 -2.46875 27.992188 -7 L 27.992188 -125.96875 C 27.992188 -129.878906 24.90625 -132.761719 21.199219 -132.761719 C 17.496094 -132.761719 14.613281 -129.878906 14.613281 -125.96875 Z M 14.613281 -7 "/></g></g></g><g fill="#545454" fill-opacity="1"><g transform="translate(545.343541, 143.251773)"><g><path d="M 64.648438 -96.976562 C 46.941406 -96.976562 32.117188 -87.296875 24.296875 -72.886719 L 24.296875 -128.269531 C 24.296875 -130.742188 22.441406 -132.800781 19.765625 -132.800781 C 17.292969 -132.800781 15.441406 -130.742188 15.441406 -128.269531 L 15.441406 -4.117188 C 15.441406 -1.851562 17.089844 0 18.941406 0 C 20.796875 0 22.441406 -1.234375 22.441406 -4.53125 L 22.441406 -26.765625 C 29.855469 -9.882812 45.707031 1.441406 65.265625 1.441406 C 91.621094 1.441406 113.652344 -21 113.652344 -47.972656 C 113.652344 -75.355469 91.621094 -96.976562 64.648438 -96.976562 Z M 64.648438 -7.207031 C 41.796875 -7.207031 23.675781 -25.941406 23.675781 -47.972656 L 23.675781 -50.441406 C 24.089844 -51.882812 24.296875 -53.324219 24.296875 -54.148438 L 24.296875 -55.179688 C 27.589844 -74.328125 44.265625 -88.53125 64.648438 -88.53125 C 87.296875 -88.53125 105.210938 -70.621094 105.210938 -47.972656 C 105.210938 -25.941406 87.296875 -7.207031 64.648438 -7.207031 Z M 64.648438 -7.207031 "/></g></g></g><g fill="#545454" fill-opacity="1"><g transform="translate(667.418673, 143.251773)"><g><path d="M 66.296875 -95.945312 C 45.5 -95.945312 29.238281 -84.414062 21.617188 -67.121094 L 21.617188 -91.210938 C 21.617188 -94.503906 19.972656 -95.738281 18.117188 -95.738281 C 16.265625 -95.738281 14.617188 -93.886719 14.617188 -91.621094 L 14.617188 -4.324219 C 14.617188 -1.851562 15.855469 0 18.117188 0 C 18.324219 0 18.53125 0 18.734375 0 L 19.148438 0 C 21.414062 0 23.472656 -2.058594 23.472656 -4.53125 L 23.472656 -44.265625 C 23.472656 -67.53125 41.382812 -87.296875 66.296875 -87.296875 C 69.386719 -87.296875 71.03125 -89.355469 71.03125 -91.621094 C 71.03125 -93.886719 69.589844 -95.945312 66.296875 -95.945312 Z M 66.296875 -95.945312 "/></g></g></g><g fill="#545454" fill-opacity="1"><g transform="translate(741.940076, 143.251773)"><g><path d="M 56.207031 -96.976562 C 28.617188 -96.976562 8.648438 -74.945312 8.648438 -47.972656 C 8.648438 -20.589844 28.617188 1.441406 56.207031 1.441406 C 72.472656 1.441406 83.589844 -4.324219 89.972656 -12.351562 C 92.035156 -14.414062 91.828125 -17.292969 90.59375 -18.734375 C 88.738281 -20.796875 85.855469 -19.972656 84.003906 -18.117188 C 78.03125 -11.324219 69.179688 -7.207031 56.414062 -7.207031 C 35.207031 -7.207031 18.941406 -23.675781 17.5 -45.089844 L 96.152344 -45.089844 C 98.828125 -45.089844 100.0625 -47.355469 100.0625 -50.441406 C 100.0625 -75.148438 82.152344 -96.976562 56.207031 -96.976562 Z M 17.914062 -53.121094 C 20.175781 -73.296875 35.824219 -88.53125 56.621094 -88.53125 C 76.386719 -88.53125 91.621094 -72.0625 92.238281 -53.121094 Z M 17.914062 -53.121094 "/></g></g></g><g fill="#545454" fill-opacity="1"><g transform="translate(850.634328, 143.251773)"><g><path d="M 103.355469 -95.738281 C 101.503906 -95.738281 99.652344 -94.503906 99.652344 -91.210938 L 99.652344 -68.769531 C 92.238281 -85.855469 76.589844 -96.976562 57.03125 -96.976562 C 30.679688 -96.976562 8.648438 -75.5625 8.648438 -47.765625 C 8.648438 -20.382812 30.679688 1.441406 57.03125 1.441406 C 76.589844 1.441406 92.238281 -9.675781 99.652344 -26.558594 L 99.652344 -4.324219 C 99.652344 -1.851562 100.679688 0 103.355469 0 C 105.621094 0 106.859375 -1.851562 106.859375 -4.324219 L 106.859375 -91.621094 C 106.859375 -93.886719 105.003906 -95.738281 103.355469 -95.738281 Z M 57.855469 -7.207031 C 35 -7.207031 17.089844 -25.738281 17.089844 -47.765625 C 17.089844 -70.414062 35.207031 -88.53125 57.855469 -88.53125 C 80.710938 -88.53125 98.414062 -70.414062 98.414062 -47.765625 C 98.414062 -25.53125 80.710938 -7.207031 57.855469 -7.207031 Z M 57.855469 -7.207031 "/></g></g></g><g fill="#545454" fill-opacity="1"><g transform="translate(970.239143, 143.251773)"><g><path d="M 19.765625 0 C 22.234375 0 24.296875 -2.058594 24.296875 -4.53125 L 24.296875 -35 L 40.148438 -50.03125 L 82.5625 -1.234375 C 84.210938 0.617188 87.09375 0.617188 88.945312 -1.234375 C 90.796875 -2.675781 90.59375 -5.765625 88.945312 -7.410156 L 46.121094 -56.003906 L 79.886719 -88.121094 C 81.53125 -89.769531 81.738281 -92.238281 80.296875 -93.886719 C 80.296875 -94.09375 80.089844 -94.296875 80.089844 -94.296875 C 78.445312 -95.945312 75.769531 -96.355469 74.121094 -94.503906 L 24.296875 -46.738281 L 24.296875 -128.269531 C 24.296875 -130.742188 22.441406 -132.800781 19.765625 -132.800781 C 17.5 -132.800781 15.441406 -130.742188 15.441406 -128.269531 L 15.441406 -4.53125 C 15.441406 -2.058594 17.292969 0 19.765625 0 Z M 19.765625 0 "/></g></g></g><g fill="#545454" fill-opacity="1"><g transform="translate(1065.346603, 143.251773)"><g><path d="M 61.355469 -129.300781 C 61.355469 -131.769531 59.296875 -133.828125 56.621094 -133.828125 C 32.53125 -133.828125 21.414062 -124.152344 21.414062 -97.59375 L 21.414062 -95.738281 L 9.058594 -95.738281 C 6.589844 -95.738281 4.941406 -93.886719 4.941406 -91.621094 C 4.941406 -89.355469 6.589844 -87.503906 9.058594 -87.503906 L 21.414062 -87.503906 L 21.414062 -4.53125 C 21.414062 -2.058594 23.265625 0 25.738281 0 C 28.207031 0 30.265625 -2.058594 30.265625 -4.53125 L 30.265625 -87.296875 L 52.503906 -87.296875 C 55.796875 -87.296875 57.03125 -89.152344 57.03125 -91.621094 C 57.03125 -94.09375 55.179688 -95.738281 52.503906 -95.738281 L 29.855469 -95.738281 L 29.855469 -96.5625 C 29.855469 -117.976562 37.058594 -125.59375 57.445312 -125.59375 C 59.707031 -125.59375 61.355469 -127.242188 61.355469 -129.300781 Z M 61.355469 -129.300781 "/></g></g></g><g fill="#545454" fill-opacity="1"><g transform="translate(1122.98747, 143.251773)"><g><path d="M 103.355469 -95.738281 C 101.503906 -95.738281 99.652344 -94.503906 99.652344 -91.210938 L 99.652344 -68.769531 C 92.238281 -85.855469 76.589844 -96.976562 57.03125 -96.976562 C 30.679688 -96.976562 8.648438 -75.5625 8.648438 -47.765625 C 8.648438 -20.382812 30.679688 1.441406 57.03125 1.441406 C 76.589844 1.441406 92.238281 -9.675781 99.652344 -26.558594 L 99.652344 -4.324219 C 99.652344 -1.851562 100.679688 0 103.355469 0 C 105.621094 0 106.859375 -1.851562 106.859375 -4.324219 L 106.859375 -91.621094 C 106.859375 -93.886719 105.003906 -95.738281 103.355469 -95.738281 Z M 57.855469 -7.207031 C 35 -7.207031 17.089844 -25.738281 17.089844 -47.765625 C 17.089844 -70.414062 35.207031 -88.53125 57.855469 -88.53125 C 80.710938 -88.53125 98.414062 -70.414062 98.414062 -47.765625 C 98.414062 -25.53125 80.710938 -7.207031 57.855469 -7.207031 Z M 57.855469 -7.207031 "/></g></g></g><g fill="#545454" fill-opacity="1"><g transform="translate(1242.592285, 143.251773)"><g><path d="M 44.0625 1.441406 C 62.589844 1.441406 78.238281 -9.882812 78.238281 -25.738281 C 78.238281 -41.796875 62.796875 -47.972656 42.207031 -53.945312 C 30.679688 -57.445312 21.824219 -61.972656 21.824219 -73.296875 C 21.824219 -85.652344 32.53125 -88.53125 42 -88.53125 C 51.882812 -88.53125 60.53125 -85.652344 66.296875 -77.414062 C 67.945312 -76.386719 68.769531 -75.769531 70.414062 -75.769531 C 72.472656 -75.769531 74.121094 -77.621094 74.121094 -79.886719 C 74.121094 -81.121094 73.503906 -82.5625 72.472656 -83.589844 C 65.472656 -92.855469 55.589844 -96.976562 42.824219 -96.976562 C 27.382812 -96.976562 12.972656 -90.179688 12.972656 -73.707031 C 12.972656 -58.472656 24.296875 -51.0625 38.707031 -47.148438 C 57.648438 -42 69.386719 -37.058594 69.386719 -25.738281 C 69.386719 -14.824219 57.855469 -7 44.679688 -7 C 31.707031 -7 22.234375 -10.914062 16.675781 -19.148438 C 15.441406 -20.175781 14 -21 12.148438 -21 C 10.089844 -21 8.648438 -19.355469 8.648438 -17.292969 C 8.648438 -16.472656 8.851562 -15.234375 10.089844 -13.792969 C 15.648438 -4.734375 27.589844 1.441406 44.0625 1.441406 Z M 44.0625 1.441406 "/></g></g></g><g fill="#545454" fill-opacity="1"><g transform="translate(1329.46532, 143.251773)"><g><path d="M 32.941406 -95.738281 L 32.941406 -118.59375 C 32.941406 -121.0625 30.882812 -122.917969 28.414062 -122.917969 C 25.941406 -122.917969 24.089844 -121.0625 24.089844 -118.59375 L 24.089844 -95.738281 L 6.792969 -95.738281 C 3.292969 -95.738281 2.058594 -93.679688 2.058594 -91.621094 C 2.058594 -89.355469 3.292969 -87.296875 6.792969 -87.296875 L 24.089844 -87.296875 L 24.089844 -4.734375 C 24.089844 -1.648438 26.355469 0 28.617188 0 C 30.679688 0 32.941406 -1.648438 32.941406 -4.734375 L 32.941406 -87.296875 L 50.238281 -87.296875 C 53.324219 -87.296875 54.765625 -89.355469 54.765625 -91.828125 C 54.765625 -93.886719 53.324219 -95.738281 50.238281 -95.738281 Z M 32.941406 -95.738281 "/></g></g></g><g fill="#000000" fill-opacity="1"><g transform="translate(1386.260567, 143.251773)"><g><path d="M 20.589844 1.234375 C 25.117188 1.234375 28.617188 -2.46875 28.617188 -7 C 28.617188 -11.324219 25.117188 -15.03125 20.589844 -15.03125 C 16.058594 -15.03125 12.558594 -11.324219 12.558594 -7 C 12.558594 -2.46875 16.058594 1.234375 20.589844 1.234375 Z M 20.589844 1.234375 "/></g></g></g></svg>